<svg width="24" height="24" viewBox="0 0 24 24" fill="none" xmlns="http://www.w3.org/2000/svg">
<rect width="24" height="24" rx="12" fill="#161616"/>
<path d="M11.6257 15.0695C11.3873 15.0695 11.1945 14.8767 11.1945 14.6383C11.1945 14.0743 11.2745 13.5871 11.4337 13.1775C11.5505 12.8687 11.7401 12.5575 12.0009 12.2431C12.1929 12.0143 12.5369 11.6799 13.0345 11.2415C13.5321 10.8023 13.8553 10.4527 14.0049 10.1919C14.1545 9.93105 14.2281 9.64625 14.2281 9.33745C14.2281 8.77825 14.0097 8.28785 13.5737 7.86465C13.1377 7.44145 12.6025 7.23025 11.9689 7.23025C11.3569 7.23025 10.8457 7.42225 10.4361 7.80545C10.1369 8.08545 9.91206 8.48065 9.76326 8.99105C9.66086 9.34145 9.31926 9.56545 8.95686 9.52225C8.49766 9.46785 8.19526 9.01345 8.32646 8.56945C8.52806 7.88705 8.86566 7.33745 9.33846 6.91985C9.99526 6.33825 10.8641 6.04785 11.9449 6.04785C13.0889 6.04785 14.0017 6.35905 14.6833 6.98225C15.3649 7.60545 15.7049 8.35825 15.7049 9.24145C15.7049 9.75265 15.5849 10.2239 15.3457 10.6543C15.1065 11.0855 14.6377 11.6095 13.9409 12.2271C13.4729 12.6423 13.1665 12.9487 13.0225 13.1455C12.8785 13.3423 12.7721 13.5687 12.7033 13.8239C12.6521 14.0135 12.6169 14.2919 12.5977 14.6575C12.5857 14.8879 12.3945 15.0687 12.1641 15.0687H11.6257V15.0695ZM11.1145 17.1335C11.1145 16.6815 11.4809 16.3151 11.9329 16.3151C12.3849 16.3151 12.7513 16.6815 12.7513 17.1335C12.7513 17.5855 12.3849 17.9519 11.9329 17.9519C11.4809 17.9519 11.1145 17.5855 11.1145 17.1335Z" fill="white"/>
</svg>
